<mxfile host="app.diagrams.net" modified="2021-03-10T22:28:05.448Z" agent="5.0 (X11; Linux x86_64) AppleWebKit/537.36 (KHTML, like Gecko) Chrome/89.0.4389.82 Safari/537.36" etag="iaxMbmx8wgjIQXp3WlXn" version="14.4.6" type="github" pages="3">
  <diagram name="Page-1" id="e7e014a7-5840-1c2e-5031-d8a46d1fe8dd">
    <mxGraphModel dx="3231" dy="1161" grid="1" gridSize="10" guides="1" tooltips="1" connect="1" arrows="1" fold="1" page="1" pageScale="1" pageWidth="1169" pageHeight="826" background="#ffffff" math="0" shadow="0">
      <root>
        <mxCell id="0" />
        <mxCell id="1" parent="0" />
        <mxCell id="2" value="O Diagrama de contexto do sistema" style="swimlane;whiteSpace=wrap" parent="1" vertex="1">
          <mxGeometry x="-50" width="620" height="440" as="geometry" />
        </mxCell>
        <mxCell id="7" value="Bemol Channel" style="" parent="2" vertex="1">
          <mxGeometry x="210" y="150" width="110" height="50" as="geometry" />
        </mxCell>
        <mxCell id="10" value="Sistema de Emails" style="" parent="2" vertex="1">
          <mxGeometry x="470" y="360" width="110" height="50" as="geometry" />
        </mxCell>
        <mxCell id="okdf8_bMquM8-PgtqrsZ-47" value="Cliente Bemol" style="shape=umlActor;verticalLabelPosition=bottom;verticalAlign=top;html=1;outlineConnect=0;" vertex="1" parent="2">
          <mxGeometry x="580" y="40" width="30" height="60" as="geometry" />
        </mxCell>
        <mxCell id="8" value="Mainframe Bemol" style="" parent="2" vertex="1">
          <mxGeometry x="20" y="340" width="110" height="50" as="geometry" />
        </mxCell>
        <mxCell id="okdf8_bMquM8-PgtqrsZ-69" value="" style="endArrow=classic;html=1;entryX=0;entryY=1;entryDx=0;entryDy=0;entryPerimeter=0;exitX=1;exitY=0.25;exitDx=0;exitDy=0;" edge="1" parent="2" source="10" target="okdf8_bMquM8-PgtqrsZ-47">
          <mxGeometry relative="1" as="geometry">
            <mxPoint x="236" y="343" as="sourcePoint" />
            <mxPoint x="236" y="110" as="targetPoint" />
          </mxGeometry>
        </mxCell>
        <mxCell id="okdf8_bMquM8-PgtqrsZ-70" value="" style="shape=message;html=1;outlineConnect=0;" vertex="1" parent="okdf8_bMquM8-PgtqrsZ-69">
          <mxGeometry width="20" height="14" relative="1" as="geometry">
            <mxPoint x="-10" y="-7" as="offset" />
          </mxGeometry>
        </mxCell>
        <mxCell id="okdf8_bMquM8-PgtqrsZ-71" value="Usar" style="endArrow=classic;html=1;entryX=0.5;entryY=0;entryDx=0;entryDy=0;" edge="1" parent="2" source="okdf8_bMquM8-PgtqrsZ-47" target="7">
          <mxGeometry relative="1" as="geometry">
            <mxPoint x="80" y="79.5" as="sourcePoint" />
            <mxPoint x="180" y="79.5" as="targetPoint" />
            <Array as="points">
              <mxPoint x="265" y="83" />
            </Array>
          </mxGeometry>
        </mxCell>
        <mxCell id="okdf8_bMquM8-PgtqrsZ-73" value="Usar" style="endArrow=classic;html=1;exitX=0.25;exitY=1;exitDx=0;exitDy=0;" edge="1" parent="2" source="7" target="8">
          <mxGeometry relative="1" as="geometry">
            <mxPoint x="140.5" y="201.99900621118007" as="sourcePoint" />
            <mxPoint x="50" y="231.44" as="targetPoint" />
            <Array as="points">
              <mxPoint x="75" y="204.44" />
            </Array>
          </mxGeometry>
        </mxCell>
        <mxCell id="okdf8_bMquM8-PgtqrsZ-75" value="Enviar email para&amp;nbsp;&lt;br&gt;o User" style="endArrow=classic;html=1;entryX=0.2;entryY=0;entryDx=0;entryDy=0;exitX=0.909;exitY=1;exitDx=0;exitDy=0;exitPerimeter=0;entryPerimeter=0;" edge="1" parent="2" source="7" target="10">
          <mxGeometry x="-0.0012" y="3" relative="1" as="geometry">
            <mxPoint x="205.5" y="231.99900621118007" as="sourcePoint" />
            <mxPoint x="115" y="261.44" as="targetPoint" />
            <Array as="points">
              <mxPoint x="490" y="200" />
            </Array>
            <mxPoint as="offset" />
          </mxGeometry>
        </mxCell>
        <mxCell id="4" value="O diagrama de componentes" style="swimlane;whiteSpace=wrap" parent="1" vertex="1">
          <mxGeometry x="724.5" y="128" width="280" height="570" as="geometry" />
        </mxCell>
        <mxCell id="33" value="process&#xa;command" style="" parent="4" vertex="1">
          <mxGeometry x="90" y="405" width="110" height="50" as="geometry" />
        </mxCell>
        <mxCell id="38" value="" style="ellipse;shape=endState;fillColor=#000000;strokeColor=#ff0000" parent="4" vertex="1">
          <mxGeometry x="130" y="500" width="30" height="30" as="geometry" />
        </mxCell>
        <mxCell id="39" value="" style="endArrow=open;strokeColor=#FF0000;endFill=1;rounded=0" parent="4" source="33" target="38" edge="1">
          <mxGeometry relative="1" as="geometry" />
        </mxCell>
        <mxCell id="okdf8_bMquM8-PgtqrsZ-41" value="O diagrama de cÃ³digo" style="swimlane;whiteSpace=wrap" vertex="1" parent="1">
          <mxGeometry x="1004.5" y="128" width="280" height="570" as="geometry" />
        </mxCell>
        <mxCell id="okdf8_bMquM8-PgtqrsZ-42" value="process&#xa;command" style="" vertex="1" parent="okdf8_bMquM8-PgtqrsZ-41">
          <mxGeometry x="90" y="405" width="110" height="50" as="geometry" />
        </mxCell>
        <mxCell id="okdf8_bMquM8-PgtqrsZ-45" value="" style="ellipse;shape=endState;fillColor=#000000;strokeColor=#ff0000" vertex="1" parent="okdf8_bMquM8-PgtqrsZ-41">
          <mxGeometry x="130" y="500" width="30" height="30" as="geometry" />
        </mxCell>
        <mxCell id="okdf8_bMquM8-PgtqrsZ-46" value="" style="endArrow=open;strokeColor=#FF0000;endFill=1;rounded=0" edge="1" parent="okdf8_bMquM8-PgtqrsZ-41" source="okdf8_bMquM8-PgtqrsZ-42" target="okdf8_bMquM8-PgtqrsZ-45">
          <mxGeometry relative="1" as="geometry" />
        </mxCell>
      </root>
    </mxGraphModel>
  </diagram>
  <diagram id="UEmgLj5CO5UQuqV_FKOi" name="Page-2">
    <mxGraphModel dx="2062" dy="1161" grid="1" gridSize="10" guides="1" tooltips="1" connect="1" arrows="1" fold="1" page="1" pageScale="1" pageWidth="827" pageHeight="1169" math="0" shadow="0">
      <root>
        <mxCell id="IdVUxwXCryskV3fDPnwa-0" />
        <mxCell id="IdVUxwXCryskV3fDPnwa-1" parent="IdVUxwXCryskV3fDPnwa-0" />
        <mxCell id="wen_Bz_VJ-L1Wn3Azqi6-0" value="O diagrama de container" style="swimlane;whiteSpace=wrap" vertex="1" parent="IdVUxwXCryskV3fDPnwa-1">
          <mxGeometry width="830" height="810" as="geometry" />
        </mxCell>
        <mxCell id="wen_Bz_VJ-L1Wn3Azqi6-1" value="Cliente Bemol" style="shape=umlActor;verticalLabelPosition=bottom;verticalAlign=top;html=1;outlineConnect=0;" vertex="1" parent="wen_Bz_VJ-L1Wn3Azqi6-0">
          <mxGeometry x="50" y="50" width="30" height="60" as="geometry" />
        </mxCell>
        <mxCell id="wen_Bz_VJ-L1Wn3Azqi6-2" value="Web Application&#xa;(Java e Spring Boot)" style="" vertex="1" parent="wen_Bz_VJ-L1Wn3Azqi6-0">
          <mxGeometry x="20" y="242" width="110" height="50" as="geometry" />
        </mxCell>
        <mxCell id="wen_Bz_VJ-L1Wn3Azqi6-3" value="Sistema de Emails" style="" vertex="1" parent="wen_Bz_VJ-L1Wn3Azqi6-0">
          <mxGeometry x="690" y="55" width="110" height="50" as="geometry" />
        </mxCell>
        <mxCell id="wen_Bz_VJ-L1Wn3Azqi6-4" value="Mainframe Bemol" style="" vertex="1" parent="wen_Bz_VJ-L1Wn3Azqi6-0">
          <mxGeometry x="690" y="730" width="110" height="50" as="geometry" />
        </mxCell>
        <mxCell id="wen_Bz_VJ-L1Wn3Azqi6-5" value="SPA&#xa;(Angular com NgRx)" style="" vertex="1" parent="wen_Bz_VJ-L1Wn3Azqi6-0">
          <mxGeometry x="210" y="242" width="110" height="50" as="geometry" />
        </mxCell>
        <mxCell id="wen_Bz_VJ-L1Wn3Azqi6-6" value="Mobile&#xa;(Kotlin)" style="" vertex="1" parent="wen_Bz_VJ-L1Wn3Azqi6-0">
          <mxGeometry x="430" y="242" width="110" height="50" as="geometry" />
        </mxCell>
        <mxCell id="wen_Bz_VJ-L1Wn3Azqi6-8" value="API&#xa;(Java e Spring Boot)" style="" vertex="1" parent="wen_Bz_VJ-L1Wn3Azqi6-0">
          <mxGeometry x="690" y="352" width="110" height="50" as="geometry" />
        </mxCell>
        <mxCell id="wen_Bz_VJ-L1Wn3Azqi6-9" value="Banco de Dados" style="" vertex="1" parent="wen_Bz_VJ-L1Wn3Azqi6-0">
          <mxGeometry x="350" y="470" width="110" height="50" as="geometry" />
        </mxCell>
        <mxCell id="wen_Bz_VJ-L1Wn3Azqi6-10" value="" style="endArrow=classic;html=1;entryX=0.5;entryY=0.5;entryDx=0;entryDy=0;entryPerimeter=0;exitX=0;exitY=0.5;exitDx=0;exitDy=0;" edge="1" parent="wen_Bz_VJ-L1Wn3Azqi6-0" source="wen_Bz_VJ-L1Wn3Azqi6-3" target="wen_Bz_VJ-L1Wn3Azqi6-1">
          <mxGeometry relative="1" as="geometry">
            <mxPoint x="170" y="283" as="sourcePoint" />
            <mxPoint x="170" y="50" as="targetPoint" />
          </mxGeometry>
        </mxCell>
        <mxCell id="wen_Bz_VJ-L1Wn3Azqi6-11" value="" style="shape=message;html=1;outlineConnect=0;" vertex="1" parent="wen_Bz_VJ-L1Wn3Azqi6-10">
          <mxGeometry width="20" height="14" relative="1" as="geometry">
            <mxPoint x="-10" y="-7" as="offset" />
          </mxGeometry>
        </mxCell>
        <mxCell id="wen_Bz_VJ-L1Wn3Azqi6-12" value="" style="endArrow=classic;html=1;exitX=1;exitY=1;exitDx=0;exitDy=0;exitPerimeter=0;entryX=0.5;entryY=0;entryDx=0;entryDy=0;" edge="1" parent="wen_Bz_VJ-L1Wn3Azqi6-0" source="wen_Bz_VJ-L1Wn3Azqi6-1" target="wen_Bz_VJ-L1Wn3Azqi6-5">
          <mxGeometry relative="1" as="geometry">
            <mxPoint x="150" y="152" as="sourcePoint" />
            <mxPoint x="320" y="232" as="targetPoint" />
          </mxGeometry>
        </mxCell>
        <mxCell id="wen_Bz_VJ-L1Wn3Azqi6-13" value="Usar" style="edgeLabel;resizable=0;html=1;align=center;verticalAlign=middle;" connectable="0" vertex="1" parent="wen_Bz_VJ-L1Wn3Azqi6-12">
          <mxGeometry relative="1" as="geometry" />
        </mxCell>
        <mxCell id="wen_Bz_VJ-L1Wn3Azqi6-14" value="" style="endArrow=classic;html=1;exitX=0;exitY=1;exitDx=0;exitDy=0;exitPerimeter=0;entryX=0.5;entryY=0;entryDx=0;entryDy=0;" edge="1" parent="wen_Bz_VJ-L1Wn3Azqi6-0" source="wen_Bz_VJ-L1Wn3Azqi6-1" target="wen_Bz_VJ-L1Wn3Azqi6-2">
          <mxGeometry relative="1" as="geometry">
            <mxPoint x="100" y="130" as="sourcePoint" />
            <mxPoint x="340" y="252" as="targetPoint" />
          </mxGeometry>
        </mxCell>
        <mxCell id="wen_Bz_VJ-L1Wn3Azqi6-15" value="Usar" style="edgeLabel;resizable=0;html=1;align=center;verticalAlign=middle;" connectable="0" vertex="1" parent="wen_Bz_VJ-L1Wn3Azqi6-14">
          <mxGeometry relative="1" as="geometry" />
        </mxCell>
        <mxCell id="wen_Bz_VJ-L1Wn3Azqi6-16" value="Enviar email para&amp;nbsp;&lt;br&gt;o User" style="endArrow=classic;html=1;entryX=0.5;entryY=1;entryDx=0;entryDy=0;exitX=0.5;exitY=0;exitDx=0;exitDy=0;" edge="1" parent="wen_Bz_VJ-L1Wn3Azqi6-0" source="wen_Bz_VJ-L1Wn3Azqi6-8" target="wen_Bz_VJ-L1Wn3Azqi6-3">
          <mxGeometry x="0.6957" relative="1" as="geometry">
            <mxPoint x="136.98999999999978" y="462" as="sourcePoint" />
            <mxPoint x="150" y="647" as="targetPoint" />
            <Array as="points" />
            <mxPoint as="offset" />
          </mxGeometry>
        </mxCell>
        <mxCell id="wen_Bz_VJ-L1Wn3Azqi6-17" value="" style="endArrow=classic;html=1;exitX=1;exitY=0.5;exitDx=0;exitDy=0;" edge="1" parent="wen_Bz_VJ-L1Wn3Azqi6-0" source="wen_Bz_VJ-L1Wn3Azqi6-9">
          <mxGeometry relative="1" as="geometry">
            <mxPoint x="190" y="432" as="sourcePoint" />
            <mxPoint x="690" y="400" as="targetPoint" />
            <Array as="points">
              <mxPoint x="690" y="500" />
            </Array>
          </mxGeometry>
        </mxCell>
        <mxCell id="wen_Bz_VJ-L1Wn3Azqi6-18" value="Escrever e Ler" style="edgeLabel;resizable=0;html=1;align=center;verticalAlign=middle;" connectable="0" vertex="1" parent="wen_Bz_VJ-L1Wn3Azqi6-17">
          <mxGeometry relative="1" as="geometry">
            <mxPoint y="15" as="offset" />
          </mxGeometry>
        </mxCell>
        <mxCell id="wen_Bz_VJ-L1Wn3Azqi6-19" value="" style="endArrow=classic;html=1;exitX=0.664;exitY=1.04;exitDx=0;exitDy=0;entryX=0.25;entryY=1;entryDx=0;entryDy=0;exitPerimeter=0;" edge="1" parent="wen_Bz_VJ-L1Wn3Azqi6-0" source="wen_Bz_VJ-L1Wn3Azqi6-2" target="wen_Bz_VJ-L1Wn3Azqi6-5">
          <mxGeometry relative="1" as="geometry">
            <mxPoint x="90" y="302" as="sourcePoint" />
            <mxPoint x="180" y="302" as="targetPoint" />
            <Array as="points">
              <mxPoint x="130" y="302" />
            </Array>
          </mxGeometry>
        </mxCell>
        <mxCell id="wen_Bz_VJ-L1Wn3Azqi6-20" value="Enviar" style="edgeLabel;resizable=0;html=1;align=center;verticalAlign=middle;" connectable="0" vertex="1" parent="wen_Bz_VJ-L1Wn3Azqi6-19">
          <mxGeometry relative="1" as="geometry">
            <mxPoint y="15" as="offset" />
          </mxGeometry>
        </mxCell>
        <mxCell id="j1ngPnl92M7ZFoxtb0Qh-1" value="" style="endArrow=classic;html=1;exitX=1;exitY=0.3333333333333333;exitDx=0;exitDy=0;exitPerimeter=0;" edge="1" parent="wen_Bz_VJ-L1Wn3Azqi6-0" source="wen_Bz_VJ-L1Wn3Azqi6-1" target="wen_Bz_VJ-L1Wn3Azqi6-6">
          <mxGeometry relative="1" as="geometry">
            <mxPoint x="220" y="90" as="sourcePoint" />
            <mxPoint x="405" y="222" as="targetPoint" />
          </mxGeometry>
        </mxCell>
        <mxCell id="j1ngPnl92M7ZFoxtb0Qh-2" value="Usar" style="edgeLabel;resizable=0;html=1;align=center;verticalAlign=middle;" connectable="0" vertex="1" parent="j1ngPnl92M7ZFoxtb0Qh-1">
          <mxGeometry relative="1" as="geometry" />
        </mxCell>
        <mxCell id="j1ngPnl92M7ZFoxtb0Qh-3" value="" style="endArrow=classic;html=1;exitX=1;exitY=1;exitDx=0;exitDy=0;entryX=0;entryY=0.25;entryDx=0;entryDy=0;" edge="1" parent="wen_Bz_VJ-L1Wn3Azqi6-0" source="wen_Bz_VJ-L1Wn3Azqi6-6" target="wen_Bz_VJ-L1Wn3Azqi6-8">
          <mxGeometry relative="1" as="geometry">
            <mxPoint x="200" y="370" as="sourcePoint" />
            <mxPoint x="553.6040609137053" y="542" as="targetPoint" />
          </mxGeometry>
        </mxCell>
        <mxCell id="j1ngPnl92M7ZFoxtb0Qh-4" value="Usar" style="edgeLabel;resizable=0;html=1;align=center;verticalAlign=middle;" connectable="0" vertex="1" parent="j1ngPnl92M7ZFoxtb0Qh-3">
          <mxGeometry relative="1" as="geometry" />
        </mxCell>
        <mxCell id="j1ngPnl92M7ZFoxtb0Qh-5" value="" style="endArrow=classic;html=1;exitX=0.5;exitY=1;exitDx=0;exitDy=0;" edge="1" parent="wen_Bz_VJ-L1Wn3Azqi6-0" source="wen_Bz_VJ-L1Wn3Azqi6-8" target="wen_Bz_VJ-L1Wn3Azqi6-4">
          <mxGeometry relative="1" as="geometry">
            <mxPoint x="390" y="760" as="sourcePoint" />
            <mxPoint x="743.6040609137053" y="932" as="targetPoint" />
          </mxGeometry>
        </mxCell>
        <mxCell id="j1ngPnl92M7ZFoxtb0Qh-6" value="Usar" style="edgeLabel;resizable=0;html=1;align=center;verticalAlign=middle;" connectable="0" vertex="1" parent="j1ngPnl92M7ZFoxtb0Qh-5">
          <mxGeometry relative="1" as="geometry" />
        </mxCell>
        <mxCell id="j1ngPnl92M7ZFoxtb0Qh-7" value="" style="endArrow=classic;html=1;exitX=1;exitY=1;exitDx=0;exitDy=0;" edge="1" parent="wen_Bz_VJ-L1Wn3Azqi6-0" source="wen_Bz_VJ-L1Wn3Azqi6-5" target="wen_Bz_VJ-L1Wn3Azqi6-8">
          <mxGeometry relative="1" as="geometry">
            <mxPoint x="360" y="329.5" as="sourcePoint" />
            <mxPoint x="510" y="402" as="targetPoint" />
          </mxGeometry>
        </mxCell>
        <mxCell id="j1ngPnl92M7ZFoxtb0Qh-8" value="Usar" style="edgeLabel;resizable=0;html=1;align=center;verticalAlign=middle;" connectable="0" vertex="1" parent="j1ngPnl92M7ZFoxtb0Qh-7">
          <mxGeometry relative="1" as="geometry" />
        </mxCell>
      </root>
    </mxGraphModel>
  </diagram>
  <diagram id="EFYhPV1As9j_-SzmH9Ou" name="Page-3">
    <mxGraphModel dx="2062" dy="1161" grid="1" gridSize="10" guides="1" tooltips="1" connect="1" arrows="1" fold="1" page="1" pageScale="1" pageWidth="827" pageHeight="1169" math="0" shadow="0">
      <root>
        <mxCell id="E3tqlQMraDSPguhyxJOn-0" />
        <mxCell id="E3tqlQMraDSPguhyxJOn-1" parent="E3tqlQMraDSPguhyxJOn-0" />
      </root>
    </mxGraphModel>
  </diagram>
</mxfile>
